PathFileType	4	(X/Y/Z)	D:\Share\Shared_Data\Ergonomics\Sit To Stand Pertubation\S2\Unperturbed.trc
DataRate	CameraRate	NumFrames	NumMarkers	Units	OrigDataRate	OrigDataStartFrame	OrigNumFrames	
100	100	14	18	m	100	3341	241
Frame#	Time	R_Toe			R_ASIS			R_Pelvis			V_Sacral			L_Pelvis			L_ASIS			Clavical			R_Acromium			L_Acromium			Sternum			Torso			R_Thigh_Med			R_Thigh_Lat			R_Thigh			R_Shank_Med			R_Shank_Lat			R_Shank			R_Heel			
		X1	Y1	Z1	X2	Y2	Z2	X3	Y3	Z3	X4	Y4	Z4	X5	Y5	Z5	X6	Y6	Z6	X7	Y7	Z7	X8	Y8	Z8	X9	Y9	Z9	X10	Y10	Z10	X11	Y11	Z11	X12	Y12	Z12	X13	Y13	Z13	X14	Y14	Z14	X15	Y15	Z15	X16	Y16	Z16	X17	Y17	Z17	X18	Y18	Z18	

3341	33.4	0.44059885	0.070000008	0.14684659	0.16770544	0.7566095	0.14700264	0.10621124	0.80189795	0.18985579	-0.04364465	0.81500562	0.035395779	0.070183899	0.81468365	-0.14447096	0.15650301	0.76757849	-0.11998441	0.45856461	0.9985509	-0.00054718906	0.41937112	1.0837568	0.20356795	0.40377563	1.0933912	-0.18391028	0.38166577	0.85543622	0.0055827093	0.43415744	0.96759131	-0.10786427	0.45577936	0.4759487	0.1165958	0.43474643	0.49210852	0.2193936	0.33524966	0.66365503	0.17733272	0.30648608	0.10963763	0.11465707	0.28727124	0.097169037	0.20794606	0.39040085	0.3450463	0.23564307	0.20267754	0.058171524	0.15390729
3342	33.41	0.44062872	0.069804428	0.14683441	0.17088242	0.76237897	0.14726575	0.10957518	0.80784045	0.19008618	-0.040179016	0.82193304	0.035493279	0.073453041	0.82072803	-0.1444334	0.15955782	0.77342145	-0.11969842	0.46126633	1.0057827	-9.7588696e-05	0.42179648	1.0908431	0.20399359	0.40638449	1.1004395	-0.18352959	0.38460461	0.86254614	0.0060111299	0.43693405	0.97469	-0.10753215	0.45562442	0.47600983	0.11638371	0.43481424	0.49230829	0.21902924	0.33790948	0.66528168	0.17739091	0.30650836	0.10963132	0.11464402	0.28729187	0.097172852	0.20793599	0.39022604	0.34532275	0.23551216	0.20266621	0.058218693	0.15392451
3343	33.42	0.44067096	0.069598122	0.1468246	0.17407692	0.76814508	0.14751942	0.11293716	0.81376398	0.19030412	-0.036708897	0.82879639	0.035576542	0.076719299	0.82672955	-0.14441074	0.16266727	0.77936108	-0.11938567	0.46392389	1.0131477	0.00034313521	0.42410529	1.0980266	0.20442029	0.40892603	1.1076393	-0.18315533	0.38754507	0.86975635	0.0064209933	0.43968799	0.98192285	-0.10719357	0.45541827	0.47609851	0.11617615	0.43482101	0.49253375	0.2186662	0.34053729	0.66688861	0.17744904	0.30653775	0.10962519	0.11462793	0.28731415	0.097178574	0.20792227	0.39002054	0.34562521	0.23539235	0.20266814	0.058256329	0.15393227
3344	33.43	0.44072751	0.069394775	0.14681535	0.17729445	0.77387793	0.14775893	0.11629517	0.81965851	0.19051062	-0.033233944	0.8355896	0.0356395	0.079994766	0.83268274	-0.14440485	0.16583247	0.78535718	-0.11907372	0.46653897	1.0206374	0.00077349955	0.42630154	1.105295	0.20484671	0.41139575	1.1149739	-0.18278929	0.39048883	0.87705817	0.0068110948	0.44242532	0.98927734	-0.10685388	0.45516556	0.47621097	0.11597961	0.43477026	0.4927804	0.2183087	0.34312897	0.66847076	0.17750908	0.30657074	0.10961955	0.11460896	0.28733453	0.097185905	0.20790549	0.38978796	0.34594843	0.23528705	0.20267903	0.058287041	0.153935
3345	33.44	0.4407995	0.069203773	0.14680576	0.1805385	0.77956769	0.14798456	0.11964692	0.82551501	0.19070709	-0.029754374	0.84230481	0.035680737	0.083286926	0.83858557	-0.144418	0.16904974	0.79137366	-0.11878708	0.46910953	1.0282412	0.0011923441	0.42838968	1.1126355	0.20527158	0.41378693	1.1224237	-0.18243106	0.39343964	0.88444122	0.0071794314	0.44514859	0.99674146	-0.10651996	0.45486777	0.4763428	0.11580009	0.43466507	0.49304279	0.21795901	0.3456824	0.67002362	0.17757333	0.30660364	0.10961376	0.11458628	0.28734979	0.097195007	0.20788524	0.38952972	0.34628766	0.235196	0.20269499	0.058312717	0.15393619
3346	33.45	0.44088647	0.069026253	0.14679549	0.18381027	0.78521722	0.14819901	0.12299113	0.83132452	0.19089531	-0.02626926	0.84893268	0.035703793	0.086599564	0.84443774	-0.14445174	0.17231409	0.79738452	-0.11853859	0.47163126	1.0359473	0.0015987804	0.43037402	1.1200359	0.20569395	0.41609079	1.1299681	-0.18207733	0.39640054	0.89189417	0.0075232615	0.44785654	1.0043036	-0.10619811	0.45452548	0.47649002	0.11564132	0.43450824	0.49331607	0.21761804	0.34819687	0.67154309	0.17764502	0.30663428	0.10960608	0.1145576	0.28735815	0.097206894	0.20785982	0.38924466	0.34663824	0.23511452	0.20271346	0.058334877	0.15393774
3347	33.46	0.44098627	0.068854141	0.14678447	0.18710941	0.79083514	0.14840572	0.12632778	0.83707886	0.19107774	-0.022776949	0.85546545	0.035712032	0.089934807	0.85023889	-0.14450653	0.17562152	0.80337225	-0.11832985	0.47409836	1.0437437	0.0019922394	0.43225885	1.1274847	0.20611336	0.41829959	1.1375896	-0.18172395	0.39937177	0.89940637	0.0078396297	0.45054419	1.011953	-0.10589279	0.45414117	0.47665048	0.1155041	0.43430148	0.49359659	0.21728577	0.35067218	0.67302509	0.17772784	0.30666281	0.10959396	0.11451928	0.28736023	0.09722374	0.20782622	0.38892813	0.34699472	0.23503549	0.20273363	0.058355209	0.15393977
3348	33.47	0.44109576	0.068672646	0.14677277	0.19043494	0.79642932	0.14860814	0.12965747	0.84277173	0.1912571	-0.019276398	0.86189972	0.035705452	0.093294441	0.85598737	-0.14458299	0.17896933	0.80932428	-0.11815604	0.47650482	1.0516184	0.0023724618	0.43404846	1.1349717	0.20652959	0.42040729	1.1452734	-0.18136794	0.40235144	0.90696893	0.0081261511	0.45320328	1.0196806	-0.10560654	0.45371814	0.4768241	0.11538726	0.43404562	0.4938822	0.21696106	0.35310825	0.67446594	0.17782472	0.30669168	0.10957461	0.11446698	0.28735828	0.097248779	0.20778076	0.38857339	0.34735211	0.23495284	0.20275597	0.058376064	0.15394125
3349	33.48	0.44121112	0.068465332	0.14676012	0.19378578	0.80200507	0.14880896	0.13298074	0.84839825	0.19143564	-0.015767157	0.86823462	0.035682617	0.096680801	0.86167847	-0.14468304	0.18235619	0.81522955	-0.11801003	0.47884506	1.0595616	0.0027394781	0.43574774	1.1424883	0.20694279	0.42240887	1.1530078	-0.18100809	0.40533588	0.91457452	0.0083811941	0.45582474	1.0274785	-0.10534041	0.45325742	0.47701212	0.11528889	0.43374094	0.49417273	0.21664206	0.35550565	0.67586432	0.17793658	0.30672495	0.10954573	0.11439687	0.28735565	0.097285759	0.20772014	0.38817538	0.34770822	0.23486429	0.20278151	0.058400703	0.15394061
3350	33.49	0.44132779	0.068219643	0.14674654	0.19716002	0.80756506	0.14900912	0.13629825	0.85395728	0.19161485	-0.012248691	0.87447046	0.03564286	0.10009734	0.86730573	-0.14480806	0.18578284	0.82107806	-0.11788416	0.48111377	1.0675645	0.0030935473	0.43736157	1.1500266	0.2073532	0.42429968	1.1607823	-0.18064412	0.40832037	0.922216	0.0086034889	0.45840048	1.03534	-0.10509415	0.45275845	0.47721686	0.11520706	0.43338806	0.49446979	0.21632669	0.35786661	0.67722095	0.17806248	0.30676688	0.10950642	0.11430704	0.28735556	0.097338173	0.20764236	0.38773431	0.34806586	0.23477202	0.20281108	0.058432968	0.15393639
3351	33.5	0.44143948	0.067930908	0.14673294	0.20055353	0.8131109	0.14920697	0.13961133	0.85945123	0.19179483	-0.0087199526	0.88060864	0.035585968	0.10354758	0.87286145	-0.14495436	0.18925189	0.82686188	-0.11777122	0.48330685	1.0756202	0.0034349844	0.43889413	1.1575808	0.20776151	0.42607602	1.168587	-0.18027597	0.41130008	0.92988617	0.0087921534	0.46092511	1.0432589	-0.10486682	0.45222256	0.47744177	0.11514062	0.43298743	0.49477652	0.21601357	0.36019485	0.67853784	0.1781998	0.30682062	0.10945758	0.11419832	0.2873602	0.097408249	0.20754723	0.38725421	0.34843127	0.23468027	0.20284503	0.05847628	0.15392778
3352	33.51	0.4415394	0.067603973	0.14672147	0.20395947	0.81864325	0.14939818	0.142922	0.86488477	0.19197357	-0.0051792336	0.88665076	0.035511654	0.10703283	0.87834033	-0.1451127	0.19276601	0.83257629	-0.11766658	0.48542157	1.0837219	0.0037643425	0.44034827	1.1651465	0.20816922	0.42773627	1.1764142	-0.17990315	0.41427133	0.93757806	0.0089478111	0.46339548	1.0512288	-0.10465865	0.45165247	0.47769022	0.11508952	0.43253955	0.49509692	0.21570302	0.36249338	0.67981732	0.17834435	0.30688705	0.10940179	0.11407437	0.28737003	0.097496223	0.20743666	0.38673849	0.34881113	0.23459225	0.20288348	0.058532318	0.15391473
3353	33.52	0.44162225	0.067252869	0.14671437	0.20736844	0.82416217	0.14957584	0.14623236	0.87026404	0.1921474	-0.0016245674	0.89259894	0.035420086	0.11055045	0.88374036	-0.1452733	0.19632593	0.83821991	-0.11757031	0.4874563	1.0918628	0.0040830917	0.44172559	1.1727194	0.20857785	0.4292818	1.1842589	-0.17952521	0.41723196	0.94528662	0.0090738211	0.4658096	1.0592418	-0.10447137	0.45104919	0.47796387	0.11505408	0.43204468	0.49543561	0.21539774	0.36476279	0.68106018	0.17849074	0.30696426	0.10934255	0.11394096	0.28738373	0.097599884	0.20731441	0.38618781	0.34920932	0.23450931	0.20292599	0.058600174	0.15389769
3354	33.53	0.44168478	0.06689827	0.14671303	0.21076859	0.82966669	0.14973041	0.1495446	0.87559503	0.19231227	0.0019455696	0.89845459	0.03531184	0.11409394	0.88906177	-0.14542926	0.1999295	0.84379358	-0.11748745	0.48940967	1.1000375	0.0043938947	0.4430274	1.1802977	0.20898798	0.43071774	1.1921226	-0.17914294	0.42018146	0.95300854	0.0091760244	0.4681644	1.0672898	-0.1043056	0.45041089	0.47826196	0.11503416	0.43150208	0.4957962	0.21510155	0.36700107	0.68226721	0.17863326	0.30704813	0.10928355	0.11380483	0.28739841	0.097714539	0.20718538	0.3856004	0.34962662	0.23443188	0.20297162	0.058676472	0.15387714
